<svg width="83" height="91" viewBox="0 0 83 91" fill="none" xmlns="http://www.w3.org/2000/svg">
<path d="M60.5557 8.58751H19.9327V72.6328L36.4015 89.1016H80.6842V8.58751H75.1946M60.5557 8.58751V7.12362H60.9217M60.5557 8.58751H75.1946M60.9217 7.12362V6.39168H61.2876V5.65973H61.6536V5.29376H62.0196V4.92778H62.3856V4.56181H62.7515V4.19584H63.1175V3.82987H63.4835V3.46389H63.8495V3.09792H64.2154V2.73195H65.3133V2.36597H66.0453V2H69.705V2.36597H70.437V2.73195H71.5349V3.09792H71.9009V3.46389H72.2668V3.82987H72.6328V4.19584H72.9988V4.56181H73.3648V4.92778C73.4867 4.92778 73.7307 4.92778 73.7307 4.92778V5.29376H74.0967V5.65973H74.4627V6.39168H74.8286V7.12362M60.9217 7.12362H63.4835L64.4342 5.29376L65.3133 4.56181L66.0453 4.19584L67.8553 3.71053L69.705 4.19584L70.437 4.56181L71.2763 5.29376L72.1316 7.12362H74.8286M74.8286 7.12362H75.1946V8.58751M22.4945 10.7834H60.5557V23.5924H60.9217V24.3244H61.2876V24.6903H61.6536V25.0563H62.0196V25.4223H62.3856V25.7882H62.7515V26.1542H63.4835V26.5202H64.2154V26.8862H66.0453V26.5202H66.7772V26.1542H67.5092V25.7882H67.8752V25.4223H68.2411V25.0563H68.6071V24.6903H68.9731V24.3244H69.3391V23.5924H69.705V15.907H67.5092V23.5924H67.1432V24.3244H66.7772V24.6903H66.4113V25.0563H63.8495V24.6903H63.4835V24.3244H63.1175V23.5924H62.7515V10.7834H78.4884V86.9057H37.8654V71.1689H22.1285V10.7834H22.4945Z" stroke="white" stroke-width="3"/>
<path d="M27.2521 86.9058V89.1016H2V8.58752H14.0771V10.7834H12.9792V86.9058H27.2521Z" stroke="white" stroke-width="3"/>
<path d="M30.1799 31.6438H67.8752M30.1799 40.4272H67.8752M30.1799 48.1126H67.8752M30.1799 56.347H67.8752M30.1799 64.7644H67.8752" stroke="white" stroke-width="3"/>
</svg>
